# xmcd
#
# Track frame offsets:
# 150
# 9299
# 23176
# 35342
# 48026
# 58398
# 70476
# 79461
# 94416
# 103654
# 113669
# 127215
# 137273
# 147524
#
# Disc length: 2076 seconds
#
#
# Revision: 0
# Processed by: cddbd v1.5.2PL0 Copyright (c) Steve Scherf et al.
# Submitted via: FreeRIP 2.945 
#
DISCID=c6081a0e
DTITLE=Willie Nelson - Original Hits
DYEAR=1900
DGENRE=Country
TTITLE0=One Step Beyond
TTITLE1=No Tomorrow in Sight
TTITLE2=I Can't Find The Time
TTITLE3=I Just Don't Understand
TTITLE4=I Feel Sorry For Him
TTITLE5=Happiness Lives Next Door
TTITLE6=Waiting Time
TTITLE7=And So Will You My Love
TTITLE8=Right From Wrong
TTITLE9=Healing Hands Of Time
TTITLE10=You'll Always Have Someone
TTITLE11=New Way To Cry
TTITLE12=Breken Promise
TTITLE13=Slow Down Old World
EXTD=
EXTT0=
EXTT1=
EXTT2=
EXTT3=
EXTT4=
EXTT5=
EXTT6=
EXTT7=
EXTT8=
EXTT9=
EXTT10=
EXTT11=
EXTT12=
EXTT13=
PLAYORDER=
